<?xml version="1.0" encoding="utf-8"?>
<svg version="1.1" id="Layer_1" xmlns="http://www.w3.org/2000/svg" xmlns:xlink="http://www.w3.org/1999/xlink" x="0px" y="0px"
	 viewBox="0 0 66.9 81.1" style="enable-background:new 0 0 66.9 81.1;" xml:space="preserve" fill="#BDBDBD">
<g>
	<path class="st0" d="M49.8,45.9C52.5,42.3,54,38,54,33.5c0-5.5-2.2-10.7-6.1-14.6c-3.9-3.9-9.2-6-14.7-5.9
		c-5.4,0.1-10.4,2.2-14.2,6.1c-3.8,3.8-5.9,8.9-6,14.3c0,4.6,1.4,9,4.2,12.6c4.5,5.9,7,13.2,7,20.4v7.9c0,3.5,2.9,6.4,6.4,6.4h5.9
		c3.5,0,6.4-2.9,6.4-6.4v-7.9C42.8,59,45.2,52,49.8,45.9z M19.2,44.3c-2.4-3.2-3.7-7-3.6-11c0.1-9.6,8-17.6,17.6-17.7
		c4.8-0.1,9.4,1.8,12.8,5.2c3.4,3.4,5.3,7.9,5.3,12.7c0,3.9-1.3,7.7-3.6,10.8c-4.8,6.4-7.4,13.8-7.6,21.6H26.7
		C26.6,58.2,23.9,50.6,19.2,44.3z M26.7,73.4v-1.1l13.5,1.5v0.4c0,0.2,0,0.4-0.1,0.6L26.7,73.4z M26.7,69.7v-1.2h13.5v2.7L26.7,69.7
		z M30.5,78.1c-1.4,0-2.6-0.8-3.3-1.9l11.3,1.3c-0.6,0.4-1.3,0.6-2.1,0.6L30.5,78.1L30.5,78.1z"/>
	<path class="st0" d="M20.4,35.5c-0.1-0.7-0.2-1.4-0.1-2.1c0-0.7-0.6-1.3-1.3-1.3c-0.7,0-1.3,0.6-1.3,1.3c0,0.8,0.1,1.7,0.2,2.5
		c0.1,0.7,0.7,1.1,1.3,1.1c0.1,0,0.1,0,0.2,0C20,36.9,20.5,36.2,20.4,35.5L20.4,35.5z"/>
	<path class="st0" d="M28.2,55.5c0.1,0,0.3,0,0.4-0.1c0.7-0.2,1.1-1,0.8-1.7c-1.5-4.4-3.6-8.6-6.5-12.3c-0.5-0.6-0.9-1.3-1.2-1.9
		c-0.3-0.6-1.1-0.9-1.8-0.6c-0.6,0.3-0.9,1.1-0.6,1.8c0.4,0.8,0.9,1.6,1.5,2.3c2.7,3.5,4.7,7.4,6.1,11.5
		C27.1,55.1,27.6,55.5,28.2,55.5L28.2,55.5z"/>
	<path class="st0" d="M47.3,38c-0.7-0.3-1.4,0-1.7,0.7c-0.4,1-1,1.9-1.6,2.7c-0.4,0.6-0.3,1.4,0.3,1.8c0.2,0.2,0.5,0.3,0.8,0.3
		c0.4,0,0.8-0.2,1-0.5c0.8-1,1.4-2.1,1.9-3.3C48.2,39.1,47.9,38.3,47.3,38L47.3,38z"/>
	<path class="st0" d="M33.4,20.3c7.3,0,13.2,5.9,13.2,13.2c0,0.4,0,0.8-0.1,1.2c-0.1,0.7,0.5,1.4,1.2,1.4c0,0,0.1,0,0.1,0
		c0.7,0,1.2-0.5,1.3-1.2c0-0.5,0.1-1,0.1-1.5c0-8.7-7.1-15.8-15.8-15.8c-0.7,0-1.3,0.6-1.3,1.3C32.1,19.8,32.7,20.3,33.4,20.3
		L33.4,20.3z"/>
	<path class="st0" d="M33.4,10.7c0.7,0,1.3-0.6,1.3-1.3V2c0-0.7-0.6-1.3-1.3-1.3c-0.7,0-1.3,0.6-1.3,1.3v7.4
		C32.1,10.1,32.7,10.7,33.4,10.7z"/>
	<path class="st0" d="M20.1,13.3c0.2,0.4,0.7,0.7,1.1,0.7c0.2,0,0.4-0.1,0.7-0.2c0.6-0.4,0.8-1.2,0.5-1.8l-3.7-6.4
		c-0.4-0.6-1.2-0.8-1.8-0.5c-0.6,0.4-0.8,1.2-0.5,1.8L20.1,13.3z"/>
	<path class="st0" d="M61.6,48.5l-6.4-3.7c-0.6-0.4-1.4-0.1-1.8,0.5c-0.4,0.6-0.1,1.4,0.5,1.8l6.4,3.7c0.2,0.1,0.4,0.2,0.7,0.2
		c0.5,0,0.9-0.2,1.1-0.7C62.4,49.6,62.2,48.8,61.6,48.5L61.6,48.5z"/>
	<path class="st0" d="M5.3,19l6.4,3.7c0.2,0.1,0.4,0.2,0.7,0.2c0.5,0,0.9-0.2,1.1-0.7c0.4-0.6,0.1-1.4-0.5-1.8l-6.4-3.7
		c-0.6-0.4-1.4-0.1-1.8,0.5C4.5,17.9,4.7,18.7,5.3,19z"/>
	<path class="st0" d="M65.1,32.4h-7.4c-0.7,0-1.3,0.6-1.3,1.3s0.6,1.3,1.3,1.3h7.4c0.7,0,1.3-0.6,1.3-1.3S65.9,32.4,65.1,32.4z"/>
	<path class="st0" d="M10.4,33.7c0-0.7-0.6-1.3-1.3-1.3H1.7c-0.7,0-1.3,0.6-1.3,1.3s0.6,1.3,1.3,1.3h7.4
		C9.8,35.1,10.4,34.5,10.4,33.7z"/>
	<path class="st0" d="M54.5,22.9c0.2,0,0.4-0.1,0.7-0.2l6.4-3.7c0.6-0.4,0.8-1.2,0.5-1.8c-0.4-0.6-1.2-0.8-1.8-0.5l-6.4,3.7
		c-0.6,0.4-0.8,1.2-0.5,1.8C53.6,22.6,54.1,22.9,54.5,22.9L54.5,22.9z"/>
	<path class="st0" d="M11.7,44.8l-6.4,3.7c-0.6,0.4-0.8,1.2-0.5,1.8c0.2,0.4,0.7,0.7,1.1,0.7c0.2,0,0.4-0.1,0.7-0.2l6.4-3.7
		c0.6-0.4,0.8-1.2,0.5-1.8C13.1,44.6,12.3,44.4,11.7,44.8z"/>
	<path class="st0" d="M44.9,13.8c0.2,0.1,0.4,0.2,0.7,0.2c0.5,0,0.9-0.2,1.1-0.7l3.7-6.4c0.4-0.6,0.1-1.4-0.5-1.8
		c-0.6-0.4-1.4-0.1-1.8,0.5L44.5,12C44.1,12.6,44.3,13.4,44.9,13.8L44.9,13.8z"/>
</g>
</svg>
